# AST/ASF file generated using VICON BodyLanguage
# -----------------------------------------------
:version 1.10
:name VICON
:units
  mass 1.0
  length 0.45
  angle deg
:documentation
   .ast/.asf automatically generated from VICON data using
   VICON BodyBuilder and BodyLanguage model FoxedUp or BRILLIANT.MOD
:root
   order TX TY TZ RX RY RZ
   axis XYZ
   position 0 0 0  
   orientation 0 0 0 
:bonedata
  begin
     id 1 
     name lhipjoint
     direction 0.535335 -0.74333 0.401095 
     length 2.04549 
     axis 0 0 0  XYZ
  end
  begin
     id 2 
     name lfemur
     direction 0.34202 -0.939693 0  
     length 6.95643  
     axis 0 0 20  XYZ
    dof rx ry rz
    limits (-160.0 20.0)
           (-70.0 70.0)
           (-60.0 70.0)
  end
  begin
     id 3 
     name ltibia
     direction 0.34192 -0.939729 0   
     length 5.55969   
     axis 0 0 20   XYZ
    dof rx
    limits (-10.0 170.0)
  end
  begin
     id 4 
     name lfoot
     direction 0.216943 -0.596046 0.773088   
     length 2.27918   
     axis -90 7.62852e-016 20   XYZ
    dof rx rz
    limits (-45.0 90.0)
           (-70.0 20.0)
  end
  begin
     id 5 
     name ltoes
     direction 1.53519e-011 -4.21748e-011 1   
     length 1.05562   
     axis -90 7.62852e-016 20   XYZ
    dof rx
    limits (-90.0 20.0)
  end
  begin
     id 6 
     name rhipjoint
     direction -0.576368 -0.719173 0.38806   
     length 2.1142  
     axis 0 0 0  XYZ 
  end
  begin
     id 7 
     name rfemur
     direction -0.34202 -0.939693 0   
     length 7.07928   
     axis 0 0 -20   XYZ
    dof rx ry rz
    limits (-160.0 20.0)
           (-70.0 70.0)
           (-70.0 60.0)
  end
  begin
     id 8 
     name rtibia
     direction -0.34202 -0.939693 0   
     length 5.79974   
     axis 0 0 -20   XYZ
    dof rx
    limits (-10.0 170.0)
 end
 begin
     id 9 
     name rfoot
     direction -0.189288 -0.520065 0.832888   
     length 2.42173  
     axis -90 -7.62852e-016 -20   XYZ
    dof rx rz
    limits (-45.0 90.0)
           (-20.0 70.0)
  end
  begin
     id 10 
     name rtoes
     direction -1.53574e-011 -4.21658e-011 1   
     length 1.14469   
     axis -90 -7.62852e-016 -20   XYZ
    dof rx
    limits (-90.0 20.0)
  end
  begin
     id 11 
     name lowerback
     direction -0.00135702 0.993803 0.111144   
     length 1.91308   
     axis 0 0 0   XYZ
    dof rx ry rz
    limits (-20.0 45.0)
           (-30.0 30.0)
           (-30.0 30.0)
  end
  begin
     id 12 
     name upperback
     direction -0.0056745 0.999813 0.0184631   
     length 1.9212   
     axis 0 0 0   XYZ
    dof rx ry rz
    limits (-20.0 45.0)
           (-30.0 30.0)
           (-30.0 30.0)
  end
  begin
     id 13 
     name thorax
     direction -0.00733434 0.999426 -0.0330788   
     length 1.94196   
     axis 0 0 0   XYZ
    dof rx ry rz
    limits (-20.0 45.0)
           (-30.0 30.0)
           (-30.0 30.0)
  end
  begin
     id 14 
     name lowerneck
     direction 0.0563074 0.996944 -0.0541571   
     length 2.34257   
     axis 0 0 0   XYZ
    dof rx ry rz
    limits (-20.0 45.0)
           (-30.0 30.0)
           (-30.0 30.0)
  end
  begin
     id 15 
     name upperneck
     direction -0.0544519 0.976166 -0.210085   
     length 2.32506   
     axis 0 0 0   XYZ
    dof rx ry rz
    limits (-20.0 45.0)
           (-30.0 30.0)
           (-30.0 30.0)
  end
  begin
     id 16
     name head
     direction -0.0226035 0.997615 -0.0652205  
     length 2.3648  
     axis 0 0 0   XYZ
    dof rx ry rz
    limits (-20.0 45.0)
           (-30.0 30.0)
           (-30.0 30.0)
  end
  begin
     id 17 
     name lclavicle
     direction 0.92109 0.381297 -0.0787716  
     length 4.0487  
     axis 0 0 0   XYZ
    dof ry rz
    limits (-20.0 10.0)
           (0.0 20.0)
  end
  begin
     id 18 
     name lhumerus
     direction 1 -4.48986e-011 3.56724e-027   
     length 4.94991   
     axis 180 -30 -90   XYZ
    dof rx ry rz
    limits (-60.0 90.0)
           (-90.0 90.0)
           (-90.0 90.0)
  end
  begin
     id 19
     name lradius
     direction 1 -4.48981e-011 8.62147e-027   
     length 2.7606   
     axis 180 -30 -90   XYZ
    dof rx
    limits (-10.0 170.0)
  end
  begin
     id 20
     name lwrist
     direction 1 -4.48989e-011 1.59799e-026   
     length 1.3803   
     axis -1.17785e-014 90 90   XYZ
    dof ry
    limits (-180.0 0.0)
 end
  begin
     id 21 
     name lhand
     direction 1 -4.48896e-011 3.19599e-026   
     length 0.843936   
     axis -2.03931e-014 90 90   XYZ
    dof rx rz
    limits (-90.0 90.0)
           (-45.0 45.0)
  end
  begin
     id 22 
     name lfingers
     direction 1 -4.48887e-011 6.39197e-026   
     length 0.680403   
     axis -4.07862e-014 90 90   XYZ
    dof rx
    limits (0.0 90.0)
  end
  begin
     id 23
     name lthumb
     direction 0.707107 -6.348e-011 0.707107   
     length 0.976926   
     axis -90 45 2.85299e-015   XYZ
    dof rx rz
    limits (-45.0 45.0)
           (-45.0 45.0)
  end
  begin
     id 24 
     name rclavicle
     direction -0.951104 0.307692 -0.026953   
     length 4.21801  
     axis 0 0 0   XYZ 
    dof ry rz
    limits (-10.0 20.0)
           (-20.0 0.0)
  end
  begin
     id 25 
     name rhumerus
     direction -1 -4.4896e-011 -1.8171e-018  
     length 4.32982   
     axis 180 30 90   XYZ
    dof rx ry rz
    limits (-90.0 60.0)
           (-90.0 90.0)
           (-90.0 90.0)
  end
  begin
     id 26 
     name rradius
     direction -1 -4.48959e-011 8.25165e-027   
     length 3.20057   
     axis 180 30 90   XYZ
    dof rx
    limits (-10.0 170.0)
  end
  begin
     id 27 
     name rwrist
     direction -1 -4.48997e-011 1.59799e-026   
     length 1.60029   
     axis -1.17785e-014 -90 -90   XYZ
    dof ry
    limits (-180.0 0.0)
  end
  begin
     id 28
     name rhand
     direction -1 -4.49023e-011 3.19599e-026   
     length 0.960433   
     axis -2.03931e-014 -90 -90   XYZ
    dof rx rz
    limits (-90.0 90.0)
           (-45.0 45.0)
  end
  begin
     id 29
     name rfingers
     direction -1 -4.48802e-011 6.39197e-026   
     length 0.774326   
     axis -4.07862e-014 -90 -90   XYZ
    dof rx
    limits (0.0 90.0)
  end
  begin
     id 30
     name rthumb
     direction -0.707107 -6.34876e-011 0.707107   
     length 1.11178   
     axis -90 -45 -2.85299e-015   XYZ
    dof rx rz
    limits (-45.0 45.0)
           (-45.0 45.0)
  end
:hierarchy
  begin
    root lhipjoint rhipjoint lowerback
    lhipjoint lfemur
    lfemur ltibia
    ltibia lfoot
    lfoot ltoes
    rhipjoint rfemur
    rfemur rtibia
    rtibia rfoot
    rfoot rtoes
    lowerback upperback
    upperback thorax
    thorax lowerneck lclavicle rclavicle
    lowerneck upperneck
    upperneck head
    lclavicle lhumerus
    lhumerus lradius
    lradius lwrist
    lwrist lhand lthumb
    lhand lfingers
    rclavicle rhumerus
    rhumerus rradius
    rradius rwrist
    rwrist rhand rthumb
    rhand rfingers
end

#!OML:ASF C:\KaitlinTest1\Natural Motions\Nikki\Session 2\Nikki.ASF
:FULLY-SPECIFIED
:DEGREES
134
root -13.6679 16.6536 4.60328 -109.539 87.9048 -117.823
lowerback -11.0999 -0.867836 2.91399
upperback -3.61636 -1.29306 -1.2565
thorax 2.3479 -0.597786 -3.11201
lowerneck -5.1448 -11.746 -9.77471
upperneck 6.12456 40.9063 5.92465
head 166.963 61.9627 -37.9869
rclavicle -2.98177e-015 -2.78299e-015
rhumerus -40.6226 -30.1363 -79.4377
rradius 16.6251
rwrist 28.4216
rhand -36.6651 2.16654
rfingers 7.12502
rthumb -9.75154 -27.5877
lclavicle -2.98177e-015 -2.78299e-015
lhumerus -39.9531 16.9289 80.7153
lradius 20.2186
lwrist -42.5917
lhand -33.5868 3.33283
lfingers 7.12502
lthumb -6.78069 33.2042
rfemur -5.62964 -13.7608 20.0344
rtibia 11.86
rfoot -11.35 11.0407
rtoes -5.00937e-014
lfemur -11.0924 14.4739 -18.8095
ltibia 15.6966
lfoot -4.98029 -15.0431
ltoes -1.11319e-014
135
root -13.6674 16.6535 4.60333 -109.599 87.901 -117.864
lowerback -11.0779 -0.866333 2.92166
upperback -3.59898 -1.29197 -1.26822
thorax 2.35355 -0.597339 -3.12818
lowerneck -5.17641 -11.7903 -9.71358
upperneck 6.10828 40.8295 5.90029
head 166.712 62.0669 -38.1635
rclavicle -1.25731e-014 -1.19271e-015
rhumerus -40.5999 -30.0827 -79.5175
rradius 16.6505
rwrist 28.3376
rhand -36.6617 2.15679
rfingers 7.12502
rthumb -9.74822 -27.5976
lclavicle -1.25731e-014 -1.19271e-015
lhumerus -39.9502 16.9986 80.6448
lradius 20.2257
lwrist -42.7026
lhand -33.5223 3.34408
lfingers 7.12502
lthumb -6.71846 33.2175
rfemur -5.59201 -13.7415 20.0308
rtibia 11.8546
rfoot -11.4022 11.0227
rtoes 2.94201e-014
lfemur -11.0698 14.4989 -18.7991
ltibia 15.694
lfoot -4.97909 -15.0777
ltoes 8.26944e-014
136
root -13.6676 16.6531 4.60311 -109.463 87.8907 -117.725
lowerback -11.0171 -0.869337 2.93025
upperback -3.63741 -1.29459 -1.25251
thorax 2.28021 -0.600151 -3.11497
lowerneck -5.11428 -11.7528 -9.76665
upperneck 6.143 40.9122 5.92697
head 166.876 61.9926 -38.0493
rclavicle 6.41081e-015 4.37326e-015
rhumerus -40.6447 -29.9117 -79.5881
rradius 16.7162
rwrist 28.1065
rhand -36.6886 2.0817
rfingers 7.12502
rthumb -9.77425 -27.6715
lclavicle 6.41081e-015 4.37326e-015
lhumerus -40.0135 17.0272 80.643
lradius 20.2112
lwrist -42.6378
lhand -33.5779 3.31538
lfingers 7.12502
lthumb -6.77208 33.1871
rfemur -5.57827 -13.7315 20.041
rtibia 11.8441
rfoot -11.4054 10.9987
rtoes 2.94201e-014
lfemur -11.0682 14.5283 -18.7895
ltibia 15.6966
lfoot -4.9868 -15.1
ltoes 3.49861e-014
137
root -13.6663 16.653 4.60342 -109.211 87.8911 -117.45
lowerback -11.0131 -0.873149 2.93252
upperback -3.6207 -1.30097 -1.24393
thorax 2.29513 -0.603127 -3.10825
lowerneck -5.12069 -11.7457 -9.7849
upperneck 6.1623 40.9872 5.93361
head 166.91 61.8794 -38.0217
rclavicle 4.96962e-015 1.98785e-015
rhumerus -40.6249 -29.8108 -79.6347
rradius 16.738
rwrist 28.0987
rhand -36.6722 2.05952
rfingers 7.12502
rthumb -9.75834 -27.6944
lclavicle 4.96962e-015 1.98785e-015
lhumerus -39.9805 16.9594 80.7118
lradius 20.1986
lwrist -42.5397
lhand -33.5502 3.36233
lfingers 7.12502
lthumb -6.74536 33.2349
rfemur -5.5552 -13.7392 20.0402
rtibia 11.8365
rfoot -11.3947 11.0217
rtoes 1.82882e-014
lfemur -11.0326 14.489 -18.7745
ltibia 15.7047
lfoot -5.00961 -15.0488
ltoes 3.65764e-014
138
root -13.6664 16.6527 4.6033 -109.231 87.8709 -117.475
lowerback -11.0174 -0.865944 2.95979
upperback -3.60947 -1.29491 -1.24577
thorax 2.30889 -0.599942 -3.12511
lowerneck -5.11207 -11.7732 -9.75961
upperneck 6.13521 40.8631 5.90133
head 166.736 62.0233 -38.1293
rclavicle -4.67144e-015 2.38542e-015
rhumerus -40.6156 -29.9154 -79.5734
rradius 16.6846
rwrist 28.2105
rhand -36.6998 2.1321
rfingers 7.12502
rthumb -9.78498 -27.6206
lclavicle -4.67144e-015 2.38542e-015
lhumerus -39.9612 16.9247 80.7279
lradius 20.2086
lwrist -42.5101
lhand -33.5224 3.38306
lfingers 7.12502
lthumb -6.7185 33.2565
rfemur -5.56513 -13.7681 20.0619
rtibia 11.8478
rfoot -11.3896 11.0435
rtoes -3.97569e-014
lfemur -11.0386 14.4701 -18.7539
ltibia 15.7003
lfoot -4.99095 -15.0438
ltoes -3.02153e-014
139
root -13.667 16.6526 4.60369 -109.385 87.8841 -117.665
lowerback -11.0732 -0.859491 2.9543
upperback -3.59755 -1.28679 -1.259
thorax 2.35223 -0.594879 -3.13628
lowerneck -5.11015 -11.7709 -9.76509
upperneck 6.12825 40.8471 5.90043
head 166.767 62.0377 -38.1072
rclavicle 9.54166e-015 7.95139e-015
rhumerus -40.5848 -29.9451 -79.5954
rradius 16.6799
rwrist 28.1827
rhand -36.7103 2.22236
rfingers 7.12502
rthumb -9.7952 -27.5298
lclavicle 9.54166e-015 7.95139e-015
lhumerus -39.9081 16.8677 80.76
lradius 20.1672
lwrist -42.3908
lhand -33.641 3.27678
lfingers 7.12502
lthumb -6.83306 33.1465
rfemur -5.61974 -13.7456 20.0593
rtibia 11.8742
rfoot -11.3774 11.0144
rtoes 5.32743e-014
lfemur -11.0761 14.4648 -18.7798
ltibia 15.6848
lfoot -4.97262 -15.0454
ltoes 3.49861e-014
140
root -13.667 16.6523 4.60358 -109.749 87.8854 -118.018
lowerback -11.0341 -0.860752 2.93779
upperback -3.60836 -1.28564 -1.25481
thorax 2.32024 -0.594987 -3.12135
lowerneck -5.07192 -11.7509 -9.79849
upperneck 6.14647 40.8919 5.91844
head 166.895 61.9832 -38.0174
rclavicle 1.25731e-014 -5.56597e-015
rhumerus -40.6342 -29.9607 -79.5606
rradius 16.7048
rwrist 28.1968
rhand -36.7221 2.2276
rfingers 7.12502
rthumb -9.80655 -27.5241
lclavicle 1.25731e-014 -5.56597e-015
lhumerus -39.9406 16.8792 80.762
lradius 20.1848
lwrist -42.4218
lhand -33.6115 3.33395
lfingers 7.12502
lthumb -6.80455 33.2046
rfemur -5.60982 -13.7665 20.0501
rtibia 11.8825
rfoot -11.3866 11.0215
rtoes -2.06736e-014
lfemur -11.0618 14.4852 -18.7882
ltibia 15.6734
lfoot -4.96274 -15.0818
ltoes -5.725e-014
141
root -13.667 16.652 4.60383 -109.637 87.8788 -117.892
lowerback -11.0139 -0.854823 2.95293
upperback -3.60117 -1.2792 -1.26144
thorax 2.3166 -0.592019 -3.13566
lowerneck -5.04631 -11.757 -9.79246
upperneck 6.13969 40.8407 5.91187
head 166.873 62.0222 -38.0196
rclavicle 2.55438e-014 5.96354e-015
rhumerus -40.5911 -29.8812 -79.6427
rradius 16.7157
rwrist 28.0866
rhand -36.7165 2.11184
rfingers 7.12502
rthumb -9.80114 -27.6401
lclavicle 2.55438e-014 5.96354e-015
lhumerus -39.9354 16.9107 80.7235
lradius 20.1712
lwrist -42.4878
lhand -33.6809 3.23173
lfingers 7.12502
lthumb -6.87151 33.1002
rfemur -5.60761 -13.7688 20.0584
rtibia 11.9054
rfoot -11.4255 11.0259
rtoes 1.59028e-014
lfemur -11.0344 14.4603 -18.772
ltibia 15.6583
lfoot -4.96239 -15.0454
ltoes -5.40694e-014
142
root -13.6661 16.6534 4.60389 -110.237 87.9059 -118.499
lowerback -11.0459 -0.857376 2.92354
upperback -3.5782 -1.28074 -1.26947
thorax 2.35849 -0.591872 -3.1287
lowerneck -5.07723 -11.7727 -9.78161
upperneck 6.12876 40.8184 5.89491
head 166.763 62.0688 -38.1027
rclavicle 9.24349e-015 -6.36111e-015
rhumerus -40.6033 -30.0278 -79.5494
rradius 16.6976
rwrist 28.3341
rhand -36.7061 2.19186
rfingers 7.12502
rthumb -9.79113 -27.5605
lclavicle 9.24349e-015 -6.36111e-015
lhumerus -39.8992 16.8732 80.7716
lradius 20.1885
lwrist -42.3239
lhand -33.6371 3.24946
lfingers 7.12502
lthumb -6.82927 33.1193
rfemur -5.61266 -13.7672 20.0179
rtibia 11.9188
rfoot -11.4219 11.0177
rtoes -2.14687e-014
lfemur -11.0355 14.4733 -18.8108
ltibia 15.6396
lfoot -4.94581 -15.0627
ltoes -7.4743e-014
143
root -13.6667 16.6533 4.6042 -110.574 87.9012 -118.829
lowerback -11.0022 -0.862305 2.92369
upperback -3.59334 -1.28596 -1.26621
thorax 2.31847 -0.595349 -3.12479
lowerneck -5.05588 -11.7545 -9.79897
upperneck 6.15397 40.887 5.91787
head 166.836 62.0371 -38.0669
rclavicle -2.38542e-015 7.95139e-015
rhumerus -40.6214 -29.9796 -79.5708
rradius 16.7172
rwrist 28.2548
rhand -36.7084 2.13815
rfingers 7.12502
rthumb -9.7933 -27.6141
lclavicle -2.38542e-015 7.95139e-015
lhumerus -39.9146 16.8394 80.781
lradius 20.1736
lwrist -42.3113
lhand -33.6564 3.28596
lfingers 7.12502
lthumb -6.84791 33.1552
rfemur -5.60694 -13.7732 20.0186
rtibia 11.9246
rfoot -11.4318 10.9973
rtoes 1.66979e-014
lfemur -11.0303 14.5058 -18.8129
ltibia 15.6356
lfoot -4.9605 -15.1032
ltoes 4.13472e-014
144
root -13.6665 16.6537 4.60434 -110.573 87.8892 -118.829
lowerback -10.9929 -0.860941 2.93055
upperback -3.5886 -1.28513 -1.26172
thorax 2.31832 -0.595004 -3.12373
lowerneck -5.06563 -11.7374 -9.80948
upperneck 6.16565 40.9508 5.94127
head 166.948 61.9989 -38.0102
rclavicle -2.68359e-015 -3.97569e-016
rhumerus -40.544 -29.7751 -79.7396
rradius 16.7626
rwrist 27.9757
rhand -36.7177 2.06256
rfingers 7.12502
rthumb -9.80225 -27.6893
lclavicle -2.68359e-015 -3.97569e-016
lhumerus -39.9134 16.8907 80.7602
lradius 20.1772
lwrist -42.3627
lhand -33.6675 3.24941
lfingers 7.12502
lthumb -6.85857 33.1183
rfemur -5.59995 -13.7449 20.0247
rtibia 11.92
rfoot -11.4206 10.9791
rtoes 1.27222e-014
lfemur -11.034 14.5019 -18.7994
ltibia 15.6378
lfoot -4.96029 -15.1043
ltoes 1.11319e-014
145
root -13.6659 16.6532 4.6038 -110.541 87.9261 -118.809
lowerback -10.9988 -0.854664 2.90779
upperback -3.59495 -1.27382 -1.27106
thorax 2.31613 -0.589337 -3.11924
lowerneck -5.04932 -11.7687 -9.79324
upperneck 6.15801 40.8693 5.90692
head 166.711 62.0988 -38.1588
rclavicle 7.70291e-015 9.54166e-015
rhumerus -40.5755 -29.8211 -79.6791
rradius 16.7495
rwrist 28.0629
rhand -36.7111 2.12278
rfingers 7.12502
rthumb -9.79591 -27.6294
lclavicle 7.70291e-015 9.54166e-015
lhumerus -39.9387 16.8244 80.7975
lradius 20.1957
lwrist -42.3175
lhand -33.6974 3.25596
lfingers 7.12502
lthumb -6.88744 33.1239
rfemur -5.61001 -13.7668 19.9897
rtibia 11.9111
rfoot -11.4284 11.0132
rtoes -1.43125e-014
lfemur -11.0524 14.5233 -18.8437
ltibia 15.6541
lfoot -4.93588 -15.1115
ltoes 1.11319e-014
